<svg xmlns="http://www.w3.org/2000/svg" width="360" height="720" viewBox="0 0 360 720">
  <rect width="360" height="720" fill="#F5F7FA"/>
  <rect x="0" y="0" width="360" height="88" fill="#0066FF"/>
  <text x="48" y="56" fill="white" font-family="Inter,sans-serif" font-size="20" font-weight="700">← Contacts</text>
  <circle cx="320" y="44" r="18" fill="rgba(255,255,255,0.2)"/>
  <text x="320" y="50" text-anchor="middle" fill="white" font-size="14">📤</text>
  <rect x="20" y="108" width="320" height="72" rx="12" fill="white"/>
  <circle cx="56" cy="144" r="24" fill="#0066FF"/>
  <text x="56" y="150" text-anchor="middle" fill="white" font-family="Inter,sans-serif" font-size="18" font-weight="700">J</text>
  <text x="96" y="138" fill="#111827" font-family="Inter,sans-serif" font-size="16" font-weight="600">John Smith</text>
  <text x="96" y="156" fill="#6B7280" font-family="Inter,sans-serif" font-size="13">TechCorp LLC</text>
  <text x="96" y="172" fill="#6B7280" font-family="Inter,sans-serif" font-size="13">john@techcorp.com</text>
  <circle cx="316" cy="144" r="16" fill="#F5F7FA"/>
  <text x="316" y="150" text-anchor="middle" fill="#6B7280" font-size="12">🗑</text>
  <rect x="20" y="192" width="320" height="72" rx="12" fill="white"/>
  <circle cx="56" cy="228" r="24" fill="#10B981"/>
  <text x="56" y="234" text-anchor="middle" fill="white" font-family="Inter,sans-serif" font-size="18" font-weight="700">S</text>
  <text x="96" y="222" fill="#111827" font-family="Inter,sans-serif" font-size="16" font-weight="600">Sarah Johnson</text>
  <text x="96" y="240" fill="#6B7280" font-family="Inter,sans-serif" font-size="13">Design Studio Inc</text>
  <text x="96" y="256" fill="#6B7280" font-family="Inter,sans-serif" font-size="13">sarah@designstudio.com</text>
  <circle cx="316" cy="228" r="16" fill="#F5F7FA"/>
  <text x="316" y="234" text-anchor="middle" fill="#6B7280" font-size="12">🗑</text>
  <rect x="20" y="276" width="320" height="72" rx="12" fill="white"/>
  <circle cx="56" cy="312" r="24" fill="#F59E0B"/>
  <text x="56" y="318" text-anchor="middle" fill="white" font-family="Inter,sans-serif" font-size="18" font-weight="700">M</text>
  <text x="96" y="306" fill="#111827" font-family="Inter,sans-serif" font-size="16" font-weight="600">Michael Chen</text>
  <text x="96" y="324" fill="#6B7280" font-family="Inter,sans-serif" font-size="13">Global Finance Corp</text>
  <text x="96" y="340" fill="#6B7280" font-family="Inter,sans-serif" font-size="13">m.chen@globalfinance.com</text>
  <circle cx="316" cy="312" r="16" fill="#F5F7FA"/>
  <text x="316" y="318" text-anchor="middle" fill="#6B7280" font-size="12">🗑</text>
</svg>
